<?xml version="1.0" encoding="UTF-8" standalone="no"?>
<!DOCTYPE svg PUBLIC "-//W3C//DTD SVG 1.1//EN" "http://www.w3.org/Graphics/SVG/1.1/DTD/svg11.dtd">
<svg version="1.1" xmlns="http://www.w3.org/2000/svg" xmlns:xlink="http://www.w3.org/1999/xlink" preserveAspectRatio="xMidYMid meet" viewBox="0 0 640 640" width="640" height="640"><defs><path d="M519.6 3.85C500.57 22.87 348.35 175.09 329.32 194.12C324.2 199.25 315.8 199.25 310.68 194.12C291.65 175.09 139.43 22.87 120.4 3.85C115.28 -1.28 106.88 -1.28 101.76 3.85C91.97 13.64 13.64 91.96 3.85 101.75C-1.28 106.88 -1.28 115.27 3.85 120.4C22.87 139.43 175.09 291.65 194.12 310.68C199.25 315.8 199.25 324.2 194.12 329.32C175.09 348.35 22.87 500.57 3.85 519.6C-1.28 524.73 -1.28 533.12 3.85 538.25C13.64 548.04 91.96 626.36 101.75 636.15C106.88 641.28 115.27 641.28 120.4 636.15C139.43 617.13 291.65 464.91 310.68 445.88C315.8 440.75 324.2 440.75 329.32 445.88C348.35 464.91 500.57 617.12 519.6 636.15C524.72 641.28 533.12 641.28 538.24 636.15C548.03 626.36 626.36 548.03 636.15 538.24C641.28 533.12 641.28 524.72 636.15 519.6C617.12 500.57 464.91 348.35 445.88 329.32C440.75 324.2 440.75 315.8 445.88 310.68C464.91 291.65 617.12 139.43 636.15 120.4C641.28 115.28 641.28 106.88 636.15 101.76C629.62 95.23 596.99 62.59 538.25 3.85C529.23 0.43 523.02 0.43 519.6 3.85Z" id="ewMy05vYp"></path></defs><g><g><g><use xlink:href="#ewMy05vYp" opacity="1" fill="#e61010" fill-opacity="1"></use><g><use xlink:href="#ewMy05vYp" opacity="1" fill-opacity="0" stroke="#000000" stroke-width="1" stroke-opacity="0"></use></g></g></g></g></svg>